<svg width="600" height="280" viewBox="0 0 600 280" xmlns="http://www.w3.org/2000/svg">
  <rect width="600" height="280" rx="12" fill="#0d1117" stroke="#30363d" stroke-width="0.5"/>

  <rect x="24" y="24" width="3" height="20" rx="1.5" fill="#1D9E75"/>
  <text x="36" y="39" font-family="Segoe UI, system-ui, sans-serif" font-size="14" font-weight="500" fill="#e6edf3">Research Interests</text>

  <!-- Row 1: Generative AI -->
  <text x="24" y="82" font-family="Segoe UI, system-ui, sans-serif" font-size="12" fill="#c9d1d9">🤖  Generative AI</text>
  <rect x="24" y="90" width="390" height="6" rx="3" fill="#21262d"/>
  <rect x="24" y="90" width="332" height="6" rx="3" fill="#1D9E75"/>
  <rect x="540" y="76" width="44" height="18" rx="9" fill="#0f6e56"/>
  <text x="562" y="88" font-family="Segoe UI, system-ui, sans-serif" font-size="10" font-weight="500" fill="#9FE1CB" text-anchor="middle">Strong</text>

  <!-- Row 2: Multimodal Learning -->
  <text x="24" y="126" font-family="Segoe UI, system-ui, sans-serif" font-size="12" fill="#c9d1d9">🧠  Multimodal Learning</text>
  <rect x="24" y="134" width="390" height="6" rx="3" fill="#21262d"/>
  <rect x="24" y="134" width="254" height="6" rx="3" fill="#185FA5"/>
  <rect x="544" y="120" width="40" height="18" rx="9" fill="#0c447c"/>
  <text x="564" y="132" font-family="Segoe UI, system-ui, sans-serif" font-size="10" font-weight="500" fill="#85B7EB" text-anchor="middle">Active</text>

  <!-- Row 3: NLP South Asian -->
  <text x="24" y="170" font-family="Segoe UI, system-ui, sans-serif" font-size="12" fill="#c9d1d9">🌏  NLP for South Asian Languages</text>
  <rect x="24" y="178" width="390" height="6" rx="3" fill="#21262d"/>
  <rect x="24" y="178" width="312" height="6" rx="3" fill="#1D9E75"/>
  <rect x="540" y="164" width="44" height="18" rx="9" fill="#0f6e56"/>
  <text x="562" y="176" font-family="Segoe UI, system-ui, sans-serif" font-size="10" font-weight="500" fill="#9FE1CB" text-anchor="middle">Strong</text>

  <!-- Row 4: Trusted / Safe AI -->
  <text x="24" y="214" font-family="Segoe UI, system-ui, sans-serif" font-size="12" fill="#c9d1d9">🛡️  Trusted / Safe AI</text>
  <rect x="24" y="222" width="390" height="6" rx="3" fill="#21262d"/>
  <rect x="24" y="222" width="195" height="6" rx="3" fill="#854F0B"/>
  <rect x="537" y="208" width="50" height="18" rx="9" fill="#412402"/>
  <text x="562" y="220" font-family="Segoe UI, system-ui, sans-serif" font-size="10" font-weight="500" fill="#EF9F27" text-anchor="middle">Growing</text>

  <!-- Row 5: Climate x AI -->
  <text x="24" y="258" font-family="Segoe UI, system-ui, sans-serif" font-size="12" fill="#c9d1d9">🌱  Climate × AI</text>
  <rect x="24" y="266" width="390" height="6" rx="3" fill="#21262d"/>
  <rect x="24" y="266" width="254" height="6" rx="3" fill="#185FA5"/>
  <rect x="544" y="252" width="40" height="18" rx="9" fill="#0c447c"/>
  <text x="564" y="264" font-family="Segoe UI, system-ui, sans-serif" font-size="10" font-weight="500" fill="#85B7EB" text-anchor="middle">Active</text>
</svg>
